<?xml version="1.0" encoding="utf-8"?>
<!-- Generator: Adobe Illustrator 17.0.0, SVG Export Plug-In . SVG Version: 6.00 Build 0)  -->
<!DOCTYPE svg PUBLIC "-//W3C//DTD SVG 1.1//EN" "http://www.w3.org/Graphics/SVG/1.1/DTD/svg11.dtd">
<svg version="1.1" id="Capa_1" xmlns="http://www.w3.org/2000/svg" xmlns:xlink="http://www.w3.org/1999/xlink" x="0px" y="0px"
	 width="1242.373px" height="813.394px" viewBox="0 0 1242.373 813.394" enable-background="new 0 0 1242.373 813.394"
	 xml:space="preserve">
<g>
	<g>
		<path fill="#FEFEFE" d="M555.485,440.528c-6.732,0.003-7.085-0.391-5.861-7.161c2.15-11.889,4.342-23.771,6.534-35.653
			c0.148-0.8,0.193-1.839,0.705-2.317c2.946-2.751,16.894,0.337,18.2,4.101c1.058,3.048,0.935,6.426,0.016,9.378
			c-1.983,6.366-1.408,13.205-3.985,19.423C567.587,436.766,564.758,440.995,555.485,440.528z"/>
		<path fill="#FEFEFE" d="M661.144,505.889c1.143-9.154,1.871-18.559,4.379-27.733c1.395-5.103,1.756-10.475,2.489-15.679
			c1.615-11.475,4.258-22.749,5.977-34.2c1.484-9.891,4.262-19.613,6.867-29.302c2.087-7.761,10.572-10.719,17.384-6.778
			c3.217,1.861,3.416,4.706,3.256,7.546c-0.845,15.039-3.86,29.832-6.569,44.561c-2.868,15.589-4.683,31.39-8.676,46.799
			c-1.855,7.16-2.552,14.591-5.5,21.521c-2.585,6.077-13.879,8.657-18.252,3.653C660.018,513.439,661.844,509.515,661.144,505.889z"
			/>
		<path fill="#FEFEFE" d="M669.994,183.936c-1.612-1.405-1.045-2.517-0.424-3.821C671.286,181.225,670.825,182.362,669.994,183.936z
			"/>
	</g>
	<g>
		<path fill="#2541FC" d="M688.042,306.971c-8.71-0.013-8.642-0.021-9.695-8.765c-3.263-27.092-5.917-54.26-10.017-81.248
			c-0.398-2.621-1.147-5.194-1.815-7.768c-0.275-1.06-0.346-2.558-1.893-2.489c-1.47,0.066-1.662,1.58-1.864,2.616
			c-1.782,9.141-3.575,18.283-5.151,27.461c-3.8,22.135-7.527,44.283-11.162,66.446c-0.464,2.826-1.471,4.244-4.465,3.759
			c-0.812-0.131-1.666,0.032-2.495-0.028c-4.596-0.334-10.858,2.03-13.288-1.008c-1.895-2.369,0.761-8.459,1.535-12.87
			c9.892-56.366,19.815-112.727,29.716-169.091c1.41-8.025,2.841-16.049,4.06-24.104c0.361-2.388,1.424-2.997,3.624-2.917
			c3.826,0.14,7.663,0.142,11.491,0.053c4.41-0.103,5.796,1.507,4.831,6.097c-4.863,23.127-8.943,46.393-11.188,69.945
			c-0.095,0.995-0.269,1.987-0.288,2.982c-0.021,1.125-0.299,2.552,1.24,2.872c1.492,0.311,1.745-1.076,2.334-2.069
			c7.13-12.018,13.545-24.418,19.833-36.886c6.667-13.22,13.373-26.421,19.853-39.733c1.219-2.504,2.573-3.457,5.292-3.28
			c3.65,0.238,7.328,0.199,10.989,0.082c4.011-0.127,5.417,0.769,3.292,5.021c-8.997,18.002-17.71,36.145-26.596,54.202
			c-5.948,12.087-11.848,24.203-18.111,36.127c-2.217,4.221-0.807,8.195-0.308,12.147c3.58,28.399,7.441,56.763,11.135,85.148
			c0.45,3.457,0.606,6.973,0.609,10.462c0.005,6.02-0.924,6.831-7,6.841C691.04,306.979,689.541,306.977,688.042,306.971z"/>
		<path fill="#2541FC" d="M626.419,115.783c-0.36,12.692-2.056,25.199-5.638,37.411c-1.789,6.101-10.595,9.622-16.084,6.513
			c-1.802-1.02-1.224-2.44-0.864-3.91c2.424-9.904,3.611-19.957,3.824-30.152c0.087-4.133-0.512-7.656-4.903-9.351
			c-5.03-1.942-9.911-2.962-14.42,1.308c-2.504,2.371-4.075,5.296-5.164,8.429c-4.675,13.463-6.925,27.379-7.607,41.594
			c-0.296,6.169,2.026,10.947,6.707,14.823c6.279,5.2,12.496,10.476,18.694,15.774c6.209,5.307,9.192,11.955,8.869,20.254
			c-0.922,23.668-5.548,46.644-13.891,68.71c-6.404,16.939-20.418,23.662-41.114,21.344c-10.724-1.201-14.654-4.711-16.481-15.384
			c-2.182-12.745,0.777-25.187,2.681-37.673c0.426-2.795,1.012-5.568,1.57-8.342c1.541-7.662,2.902-8.763,10.668-8.711
			c7.78,0.052,7.712,0.139,6.331,7.902c-1.692,9.506-2.945,19.074-3.323,28.751c-0.187,4.796,0.932,8.414,5.862,10.314
			c5.134,1.979,9.742,1.842,13.823-2.174c3.806-3.746,5.634-8.578,7.149-13.52c3.525-11.495,5.298-23.354,7.143-35.197
			c1.379-8.851-0.51-16.467-7.794-22.342c-3.621-2.921-6.858-6.317-10.46-9.264c-11.645-9.524-16.681-21.457-14.667-36.594
			c2.132-16.02,4.146-32.045,9.263-47.443c3.321-9.994,7.951-19.344,18.636-23.379c10.728-4.051,21.555-3.418,32.203,0.756
			c5.951,2.333,8.893,6.711,8.982,13.055C626.445,111.451,626.419,113.617,626.419,115.783z"/>
		<path fill="#2541FC" d="M186.778,813.394c-17.296-36.56-21.309-75.324-18.213-116.399c-6.84,7.33-10.056,14.555-12.117,22.51
			c-3.294,12.714-6.221,25.5-8.452,38.718c-11.07-17.277-19.777-85.46-10.867-116.223c13.136,6.561,26.222,13.071,39.285,19.629
			c11.448,5.747,22.883,11.522,34.298,17.335c6.445,3.282,6.586,3.445,2.256,9.542c-13.558,19.09-19.765,40.829-23.486,63.554
			c-2.952,18.031-2.166,36.218-2.695,54.353C186.72,808.739,186.778,811.067,186.778,813.394z"/>
		<path fill="#2541FC" d="M885.545,306.964c-7.497,0-14.998-0.143-22.489,0.066c-3.279,0.091-4.222-0.622-3.577-4.108
			c4.93-26.674,9.74-53.37,14.443-80.085c6.952-39.491,13.804-79,20.653-118.509c1.265-7.299,1.167-7.316,8.638-7.409
			c12.446-0.156,12.359-0.171,10.224,12.018c-8.296,47.364-16.565,94.732-24.757,142.114c-1.445,8.359-2.232,16.837-3.805,25.168
			c-0.738,3.906,0.741,5.137,4.096,5.633c7.784,1.151,15.619,1.109,23.441,0.9c3.441-0.092,4.813,0.504,3.76,4.38
			c-1.435,5.282-2.569,10.692-3.236,16.12c-0.423,3.443-2.044,3.82-4.9,3.763C900.541,306.865,893.042,306.964,885.545,306.964z"/>
		<path fill="#2541FC" d="M803.729,306.963c-7.684,0-14.183-0.124-20.674,0.055c-3.015,0.083-3.49-0.779-2.967-3.712
			c4.965-27.84,9.722-55.717,14.602-83.572c5.568-31.781,11.204-63.55,16.804-95.325c1.414-8.025,2.901-16.04,4.15-24.091
			c0.424-2.735,1.644-3.588,4.278-3.362c2.48,0.213,4.993,0.022,7.491,0.058c6.777,0.099,7.867,1.266,6.775,8.145
			c-1.956,12.323-4.066,24.622-6.179,36.92c-7.636,44.431-16.043,88.728-23.049,133.269c-0.775,4.929,0.623,6.426,5.332,6.85
			c7.658,0.69,15.307,0.642,22.961,0.562c2.905-0.031,4.258,0.351,3.425,3.791c-1.133,4.679-1.81,9.475-2.527,14.245
			c-0.505,3.363-2.447,4.713-5.671,5.167C819.859,307.175,811.195,306.859,803.729,306.963z"/>
		<path fill="#2541FC" d="M738.101,306.407c-10.816,0.773-10.828,1.049-8.92-9.532c9.738-54.016,19.001-108.118,28.436-162.189
			c1.944-11.139,4.062-22.252,5.767-33.427c0.5-3.276,2.054-4.213,4.903-4.219c3.163-0.006,6.332-0.17,9.487-0.015
			c5.007,0.246,5.994,1.608,5.15,6.677c-3.224,19.357-6.351,38.731-9.711,58.064c-7.973,45.879-16.131,91.727-23.993,137.625
			c-0.832,4.858-2.194,7.696-7.636,6.802C740.463,306.01,739.263,306.319,738.101,306.407z"/>
	</g>
	<g>
		<path fill="#CC0099" d="M492.527,0c4.373,22.375,7.585,44.935,10.601,67.52c5.993,44.868,7.633,89.931,5.747,135.145
			c-2.199,52.726-15.216,103.225-31.368,153.082c-1.835,5.663-2.084,5.711-6.333,1.372c-30.086-30.719-52.392-66.149-64.706-107.552
			c-4.292-14.432-5.673-29.386-7.502-44.253c-0.205-1.668,0.418-4.148-2.186-4.382c-2.3-0.206-2.833,2.157-3.484,3.708
			c-5.259,12.533-7.666,25.816-9.795,39.13c-5.55,34.706-1.258,68.7,7.743,102.323c9.416,35.168,24.912,67.68,43.363,98.876
			c1.923,3.251,1.961,5.644,0.115,9.069c-31.659,58.749-72.194,110.991-116.927,160.182c-14.898,16.383-29.531,33.012-45.751,48.149
			c-3.088,2.882-5.696,3.423-9.648,1.625c-46.949-21.362-93.399-43.777-139.916-66.051c-2.911-1.394-3.246-3.286-3.073-5.959
			c1.077-16.639,3.647-33.097,6.125-49.556c4.933-32.753,10.153-65.472,17.027-97.879c11.629-54.823,31.029-106.947,55.489-157.271
			c1.163-2.393,1.917-3.077,4.137-0.937c36.525,35.224,62.557,76.307,71.119,127.146c1.658,9.847,1.686,19.917,3.819,29.705
			c0.301,1.379-0.005,3.537,1.72,3.835c2.02,0.349,2.548-1.905,3.235-3.279c3.91-7.818,5.641-16.342,7.435-24.786
			c10.105-47.549,5.245-93.964-10.44-139.654c-8.028-23.384-18.824-45.477-30.216-67.299c-2.489-4.768-1.823-7.854,1.035-11.99
			c38.318-55.449,86.006-101.279,141.535-139.266C423.463,38.842,456.232,18.194,490.527,0C491.194,0,491.86,0,492.527,0z"/>
		<path fill="#CC0099" d="M553.623,522.975c0-10.648-0.013-21.296,0.009-31.944c0.006-2.854-0.184-5.664-1.438-8.282
			c-1.249-2.607-3.495-4.304-6.202-4.475c-2.932-0.185-4.089,2.403-5.012,4.801c-2.284,5.933-3.37,12.179-4.505,18.38
			c-3.384,18.49-6.588,37.012-9.814,55.531c-0.353,2.023-0.3,3.919-3.31,3.817c-9.479-0.321-18.97,0.327-28.452-0.71
			c-4.063-0.444-4.966-2.175-4.32-5.902c4.656-26.878,9.197-53.777,13.792-80.665c4.428-25.91,8.872-51.818,13.321-77.725
			c2.365-13.772,4.782-27.535,7.112-41.312c0.421-2.487,1.358-3.722,4.196-3.655c20.638,0.487,41.313-0.214,61.893,1.996
			c20.536,2.205,26.556,8.846,25.459,29.472c-0.911,17.125-3.318,34.104-7.471,50.793c-2.358,9.474-6.784,17.635-14.482,23.885
			c-3.546,2.88-5.633,5.882-3.369,11.131c1.568,3.636,1.254,8.179,1.376,12.328c0.74,25.161-0.124,50.275-2.224,75.362
			c-0.338,4.035-1.625,5.217-5.682,5.065c-9.148-0.342-18.318-0.037-27.477-0.131c-6.567-0.067-6.644,1.685-6.209-6.829
			c0.527-10.311,1.093-20.62,1.643-30.93C552.846,522.977,553.234,522.976,553.623,522.975z M555.485,440.528
			c9.272,0.468,12.101-3.762,15.609-12.228c2.576-6.218,2.001-13.057,3.985-19.423c0.92-2.952,1.042-6.33-0.016-9.378
			c-1.306-3.764-15.254-6.851-18.2-4.101c-0.512,0.478-0.557,1.516-0.705,2.317c-2.192,11.882-4.384,23.763-6.534,35.653
			C548.4,440.137,548.753,440.531,555.485,440.528z"/>
		<path fill="#CC0099" d="M701.05,348.341c7.192,0.401,13.029,0.309,18.773,1.525c11.857,2.508,18.048,9.364,19.738,21.384
			c1.786,12.699,0.459,25.297-1.24,37.816c-4.924,36.271-10.688,72.406-19.77,107.921c-1.815,7.096-4.278,13.984-7.214,20.699
			c-6.45,14.754-17.31,23.535-33.577,25.561c-11.327,1.411-22.586,1.541-33.824-0.331c-15.357-2.558-21.586-9.559-22.563-25.085
			c-0.895-14.221,1.08-28.249,3.166-42.241c4.98-33.395,10.152-66.76,18.812-99.463c2.218-8.375,5.139-16.486,8.733-24.378
			c5.891-12.938,15.763-20.274,29.938-21.686C688.811,349.387,695.61,348.83,701.05,348.341z M661.144,505.889
			c0.699,3.626-1.127,7.549,1.354,10.388c4.373,5.004,15.667,2.423,18.252-3.653c2.947-6.929,3.644-14.361,5.5-21.521
			c3.993-15.41,5.808-31.21,8.676-46.799c2.709-14.729,5.724-29.522,6.569-44.561c0.16-2.84-0.039-5.685-3.256-7.546
			c-6.812-3.941-15.297-0.984-17.384,6.778c-2.605,9.689-5.382,19.411-6.867,29.302c-1.719,11.451-4.361,22.725-5.977,34.2
			c-0.733,5.205-1.093,10.576-2.489,15.679C663.015,487.33,662.288,496.735,661.144,505.889z"/>
		<path fill="#CC0099" d="M924.427,466.295c-3.021,2.39-3.405,4.737-3.727,6.943c-3.787,26.019-8.489,51.881-13.215,77.741
			c-1.594,8.72-2.357,9.625-11.277,9.789c-7.321,0.135-14.648,0.381-21.968-0.303c-4.193-0.392-5.724-2.156-4.948-6.575
			c3.941-22.453,7.552-44.963,11.461-67.421c7.532-43.27,15.241-86.509,22.698-129.791c0.676-3.925,2.102-5.149,6.041-5.074
			c8.487,0.162,16.984-0.363,25.476-0.337c7.23,0.022,7.442,0.5,6.21,7.72c-3.077,18.041-6.18,36.077-9.124,54.139
			c-1.017,6.238-1.632,12.543-2.346,18.826c-0.156,1.374-0.793,3.005,1.165,4.104c6.622-9.571,11.18-20.198,16.042-30.643
			c7.72-16.586,15.313-33.233,22.786-49.932c1.472-3.29,3.209-4.741,7.041-4.561c9.808,0.459,19.64,0.404,29.462,0.567
			c3.6,0.06,4.497,1.268,2.79,4.838c-14.06,29.414-27.928,58.919-41.964,88.344c-1.28,2.684-1.797,5.243-1.485,8.155
			c3.175,29.63,6.309,59.264,9.422,88.9c0.47,4.471,0.77,8.96,1.151,13.44c0.252,2.966-0.852,4.814-4.037,5.085
			c-11.135,0.949-22.261,1.068-33.386-0.179c-2.855-0.32-3.941-1.895-4.099-4.651c-1.38-24.114-4.442-48.061-7.332-72.021
			C926.61,477.983,925.491,472.625,924.427,466.295z"/>
		<path fill="#CC0099" d="M843.407,426.643c-3.997,0.001-8.034-0.353-11.982,0.089c-5.247,0.587-5.598-1.727-4.798-5.998
			c1.223-6.533,2.104-13.145,2.781-19.76c0.451-4.403,0.4-9.48-5.082-10.548c-8.214-1.6-13.534-1.02-16.832,4.88
			c-2.243,4.013-3.107,8.451-4.038,12.803c-6.753,31.557-13.107,63.193-17.443,95.194c-0.223,1.643-0.386,3.322-0.315,4.973
			c0.258,6.003,2.928,9.65,7.763,10.812c6.634,1.596,11.7-0.19,14.703-5.486c4.089-7.213,5.537-15.334,7.027-23.302
			c0.932-4.985,2.672-6.751,7.922-6.587c7.965,0.249,15.972-0.458,23.945-1.007c2.942-0.203,3.822,0.62,3.419,3.538
			c-2.629,19.013-6.53,37.666-14.342,55.353c-3.649,8.262-9.597,13.815-17.929,17.015c-17.496,6.72-35.375,7.574-53.459,3.06
			c-10.851-2.709-16.36-9.83-17.232-21.161c-1.173-15.232,0.843-30.263,3.098-45.244c4.704-31.255,9.577-62.489,16.887-93.271
			c2.807-11.82,6.022-23.524,12.387-34.082c5.261-8.728,12.774-14.454,22.697-16.6c15.462-3.344,31.008-4.083,46.479,0.037
			c10.094,2.688,15.616,8.967,16.698,19.763c1.805,18.018-1.314,35.499-4.353,53.055c-0.393,2.273-1.689,2.503-3.511,2.488
			C853.067,426.615,848.237,426.642,843.407,426.643z"/>
		<path fill="#CC0099" d="M1044.217,560.829c-14.507,0.075-25.327-0.274-36.153-0.714c-4.175-0.17-4.955-1.456-4.264-5.328
			c4.708-26.375,9.201-52.789,13.835-79.178c6.823-38.848,13.803-77.668,20.451-116.545c0.909-5.315,3.29-7.596,8.416-7.663
			c22.988-0.3,45.977-0.883,68.956,0.428c3.685,0.21,5.367,1.509,4.681,5.634c-1.694,10.179-3.415,20.344-5.45,30.465
			c-0.843,4.192-2.994,5.81-7.049,6.247c-9.979,1.075-19.984,0.486-29.97,0.698c-5.509,0.117-8.363,1.777-9.634,7.564
			c-1.858,8.461-3.741,16.879-4.713,25.497c-0.403,3.57,0.771,4.925,4.526,5.296c10.816,1.07,21.65,0.591,32.471,0.855
			c4.482,0.109,5.699,1.4,4.62,5.947c-1.997,8.411-3.582,16.939-4.901,25.485c-0.752,4.874-3.291,7.026-7.928,7.132
			c-7.329,0.168-14.66,0.217-21.989,0.389c-14.857,0.349-14.947,0.351-17.64,14.595c-1.453,7.683-2.507,15.44-3.793,23.155
			c-0.571,3.427,0.329,5.006,4.244,5.457c10.802,1.245,21.655,0.227,32.455,1.226c4.244,0.393,6.245,1.238,5.184,6.255
			c-2.167,10.25-3.694,20.636-5.443,30.972c-0.593,3.506-2.649,4.957-6.127,5.353
			C1066.201,561.508,1053.36,560.478,1044.217,560.829z"/>
		<path fill="#CC0099" d="M375.31,732.698c-6.668-9.944-11.451-20.002-16.348-29.966c-9.312-18.95-18.299-38.059-27.569-57.031
			c-1.243-2.545-1.502-4.209,0.605-6.514c38.727-42.348,74.189-87.377,109.009-132.934c6.231-8.153,5.263-7.569,9.551,0.924
			c5.167,10.235,9.63,20.825,14.572,31.177c1.264,2.648,0.492,4.742-0.594,7.039c-16.358,34.567-32.647,69.168-49.057,103.71
			c-12.774,26.889-25.694,53.709-38.555,80.557C376.577,730.386,376.172,731.082,375.31,732.698z"/>
		<path fill="#CC0099" d="M0,558.504c6.416-13.717,12.289-26.336,18.213-38.93c23.21-49.346,46.518-98.646,69.544-148.077
			c2.604-5.59,5.688-8.875,12.048-9.971c9.975-1.719,19.746-4.598,29.644-6.801c8.603-1.915,8.759-1.755,6.379,6.466
			c-5.272,18.205-10.836,36.327-15.991,54.565c-8.692,30.747-16.566,61.687-19.824,93.588c-0.439,4.298-0.37,8.646-0.619,12.967
			c-0.466,8.081-1.257,9.099-8.981,11.551c-23.148,7.349-46.568,13.743-70.084,19.787C13.944,555.288,7.504,556.718,0,558.504z"/>
		<path fill="#CC0099" d="M1158.109,560.76c-4.496,0-9.018-0.301-13.481,0.087c-4.24,0.368-4.644-1.448-4.016-4.909
			c3.173-17.51,6.29-35.03,9.314-52.566c5.793-33.593,12.202-67.083,17.076-100.832c1.036-7.172,0.83-7.468-6.224-7.657
			c-4.827-0.129-9.658-0.072-14.485-0.183c-3.991-0.092-6.202-1.885-5.858-6.218c0.924-11.632,3.907-22.943,5.279-34.503
			c0.233-1.959,1.589-2.214,3.254-2.201c29.135,0.229,58.271-1.445,87.403,0.017c6.276,0.315,6.503,0.745,5.633,6.887
			c-1.424,10.049-3.304,20.012-5.4,29.944c-0.737,3.493-2.51,5.054-5.947,5.585c-5.974,0.923-11.972,0.437-17.952,0.63
			c-4.237,0.137-6.338,2.128-7.195,6.091c-7.03,32.526-12.163,65.398-18.005,98.141c-3.418,19.156-7.026,38.279-10.315,57.457
			c-0.626,3.651-2.204,4.519-5.597,4.3C1167.115,560.543,1162.605,560.76,1158.109,560.76z"/>
	</g>
</g>
</svg>
